<?xml version="1.0" encoding="utf-8"?>
<!-- Generator: Adobe Illustrator 27.0.1, SVG Export Plug-In . SVG Version: 6.00 Build 0)  -->
<svg version="1.1" id="Layer_1" xmlns="http://www.w3.org/2000/svg" xmlns:xlink="http://www.w3.org/1999/xlink" x="0px" y="0px"
	 viewBox="0 0 1224 792" style="enable-background:new 0 0 1224 792;" xml:space="preserve">
<style type="text/css">
	.st0{fill:#EAE9E9;}
	.st1{fill:#ED6C23;}
</style>
<g>
	<g>
		<path class="st0" d="M384.9,779.7V706h12.3v24.6h24.6v12.3h-24.6v36.8L384.9,779.7L384.9,779.7z M421.7,779.7V792h-24.6v-12.3
			H421.7z M434,742.9v36.8h-12.3v-36.8H434z"/>
		<path class="st0" d="M446.3,779.7v-36.8h12.3v36.8H446.3L446.3,779.7z M458.6,742.9v-12.3h24.6v12.3H458.6z M483.1,779.7V792
			h-24.6v-12.3H483.1z M495.4,742.9v36.8h-12.3v-36.8H495.4z"/>
		<path class="st0" d="M507.7,779.7v-61.4H520v12.3h24.6v12.3H520v36.8L507.7,779.7L507.7,779.7z M519.9,779.7h24.6V792h-24.6V779.7
			z"/>
		<path class="st0" d="M593.6,755.2v12.3H569v12.3h-12.3V743H569v12.3L593.6,755.2L593.6,755.2z M569.1,742.9v-12.3h24.6v12.3H569.1
			z M569.1,779.7h24.6V792h-24.6V779.7z M605.9,742.9v12.3h-12.3v-12.3H605.9z"/>
		<path class="st0" d="M655,742.9h-24.6V792h-12.3v-61.4H655V742.9z M667.3,742.9V792H655v-49.1H667.3z"/>
		<path class="st0" d="M679.6,779.7v-36.8h12.3v36.8H679.6L679.6,779.7z M728.7,706.1v73.7h-12.3V743h-24.6v-12.3h24.6v-24.6
			L728.7,706.1L728.7,706.1z M716.4,779.7V792h-24.6v-12.3H716.4z"/>
		<path class="st0" d="M777.8,755.2v12.3h-24.6v12.3h-12.3V743h12.3v12.3L777.8,755.2L777.8,755.2z M753.2,742.9v-12.3h24.6v12.3
			H753.2z M753.2,779.7h24.6V792h-24.6V779.7z M790.1,742.9v12.3h-12.3v-12.3H790.1z"/>
		<path class="st0" d="M839.2,742.9h-24.6V792h-12.3v-61.4h36.8L839.2,742.9L839.2,742.9z"/>
	</g>
	<g>
		<path class="st1" d="M523.6,339c-1.2,0.9-1.8,2.4-0.9,3.8c1,1.4,2.4,1.4,3.8,0.6c0.8-0.5,2.7-2,3.6-2.9c1.6-1.5,7.6-4.4,10.2-7.2
			c-4.3,1.1-8.1,2-11.8,2.9C526.7,336.7,525.1,337.9,523.6,339"/>
		<path class="st1" d="M635.6,276c0-0.8-0.1-1.2,1-1.2c4.3,0.3,7.9-2.5,9.1-6.4c1.1-3.5-0.5-6.2-2.5-8.8c0.8-0.3,1.6-0.6,2.2-1
			c4.2-2.3,5.5-8.5,3-13.5c-2.1-4.3-5.5-7.2-9.3-9.8c-5.4-3.7-11.4-5.7-18.1-5.5c-6.9,0.2-13.2,2.3-19.5,5c-2.8,1.2-5.5,2.6-8.8,2.1
			c-4.1-0.7-5.6-3.3-4.1-7.1c0.8-2.1,2.2-3.6,3.7-4.9c0.4-0.4,0-1.1-0.5-0.9c-3,1.2-5.4,3.2-7.4,5.9c-3.7,5-2.1,10.6,3.1,12.1
			c0.7,0.2,1.3,0.4,1.1,1.4c-1,3.6,0.5,6.6,3,9.2c0,0.1,0,0.1,0,0.2c-7.1,4.2-6.2,14,1.8,16.4c1,0.3,1.1,0.8,0.7,1.7
			c-2.4,7.2,5.3,13.1,11,10.5c1.1-0.5,1.3,0,1.7,0.7c2.2,3.6,9.3,6.3,13.3,1.7c1.1-1.3,1.9-1.1,3.2-0.4
			C629.2,286.4,635.6,282.4,635.6,276 M618.6,276.5c-15.9-0.7-21.9-8.6-22-22.9c-0.1-12.8,12.2-20.4,23.9-19.9s19.9,9.7,20.1,20.1
			C641,268.5,631.1,277,618.6,276.5"/>
		<path class="st1" d="M671.4,288.4c2.2,3.8,5.3,7.6,2.9,12.3c-2.8,5.6-7.5,3.5-11.9,2.2c-0.9,1.3,4.9,4.6,6.6,9
			c0.6,2.4-0.4,4.1-2.9,4.4c-0.8,0.1-2.5-0.3-3.4-0.5c-3.7-0.7-6.2-3.4-9.2-5.4c-1,0.4,0.5,2.1,1,3.1c1.5,3.2,2.6,6.4,1.7,9.9
			c-0.6,2.4-2.6,3.4-4.9,2.5c-3-1.2-4.3-3.9-5.6-6.5c-0.4-0.7-0.4-2.2-1.5-2c-1,0.2-0.4,1.5-0.4,2.2c0,2.5-0.5,4.8-1.8,6.9
			c-0.8,1.3-1.8,2.7-3.7,2.7c-2-0.1-3.1-1.3-3.9-2.9c-1.3-2.6-1.8-5.3-0.9-8.3c0.3-1,1.1-2,0.3-3.3c-0.7-0.3-2.2,3.2-3.9,4.3
			c-2.5,1.6-4.1,0.9-4.7-2c-0.6-2.8-0.2-5.5,0.3-8.3c0.3-0.4,0-0.4-0.3-0.4c-1.4,3.4-2.8,6.8-2.4,10.7c0.3,2.7,2,5.5,5.8,4.3
			c0.5-0.2,0.8-0.7,1.6-0.3c0.4,4.7,2.3,8.7,7.4,9.8c4.3,1,7.1-1.3,8.6-5.4c0.7,0.5,1.2,0.9,1.6,1.3c2.8,2.3,5.8,2.6,9,0.8
			c3-1.8,3.9-4.7,3.6-7.9c-0.2-1.7-0.4-2.1,1.7-1.5c3.1,1,6.4,1.1,8.9-1.5c2.2-2.3,2.5-5.4,1.1-8.2c-1-2.1-0.4-2.7,1.4-3.6
			c3.3-1.7,5.2-4.5,4.8-8.2C677.4,294.1,674.7,290.9,671.4,288.4"/>
		<path class="st1" d="M903.8,93.5c-1.7-3.6-4.3-5.8-7.7-5.9c-3.6-0.2-7.1,0.5-10.6,1.3c-10.1,2.1-20.1,4.5-30.2,6.2
			c-7,1.5-12.4,2.6-19.3,4.2c-6.6,1.5-12.4,2.8-19.8,4.6c-6.6,1.5-11.3,2.4-17.3,4.1c-6.3,2.2-12.7,3.8-18.9,6.2
			c-8,3-15.1,8.3-21.9,14c-5.1,4.2-10.3,8.3-14.9,13.4c-5,5.5-10.3,10.4-15.3,15.8c-0.3,0.4-0.7,0.7-1,1.1c-5.8-5.1-12-9.8-18.5-14
			c4.1-4.4,8-9,11-14.2c2.7-4.8,4.7-10,6.9-15c2.6-6,4.8-12.2,8.2-17.7c4.6-7.4,8.4-15.3,12.7-22.9c3.2-5.8,6.3-11.6,9.7-17.3
			c3-5.1,6.2-10.2,8.5-15.7c3.4-8.3,5.6-16.8,6.3-25.8c0.3-4.9-0.3-9.5-3.2-13.6c-0.8-1.1-1.9-2.1-3.2-2c-2.7,0.3-5.3,1.1-7.4,2.8
			c-5.6,4.7-11.9,8.2-17.7,12.6c-7.7,5.9-15.6,11.5-23.1,17.6c-11,9.1-21.8,18.5-31.2,29.2c-4.1,4.7-7.3,10.1-9.9,15.7
			c-3,6.5-5,13.3-7.3,20c-1.2,3.6-2.6,7-3.7,10.6c-1.4,4.6-2.9,9.1-4.4,13.6c-15.3-4.4-31.3-6.7-48-6.7
			c-96.5,0-174.7,78.2-174.7,174.7s78.2,174.7,174.7,174.7s174.7-78.2,174.7-174.7c0-26.1-5.8-50.8-16.1-73.1
			c0.7-0.2,1.5-0.5,2.3-0.8c9.9-2.8,23.8-10.1,28.2-12.6c8.4-4.8,17.6-11.6,25.2-18c5.9-4.9,11-10,16.9-16.2
			c5-5.9,10.3-11.4,15.3-17.3c9.6-11.3,20-21.4,30-32.1c5-5.4,10.4-10.3,14-17.5C904.5,99.8,905.3,96.8,903.8,93.5 M761.2,131.8
			c7.5-6.4,14.6-10.1,23.3-13.3c8.2-3,16.7-4.6,24.9-7.2c0.9-0.3,1.3,0.1,1.3,1.3c0.1,3.4-2.8,8-5.9,9.6c-9.1,3.6-12.1-3.2-13.1-2.6
			c-2.3,0.8,0.4,7.7-5.7,10.7c-3.7,1.8-7.3,1.3-10.2-2.1c-1.5-1.7-2-1.1-2.7,0.7c-3,6.8-8.1,8.7-12.6,6.9c-0.7-0.3-1.5-0.6-1.7-1.4
			C758.8,133.4,760.7,132.2,761.2,131.8 M700.3,152.8c6.5,4.1,12.6,8.8,18.5,13.7c-3.4,3.3-6.7,6.6-10.1,9.8
			c-7,6.7-17.1,9.8-28,12.6c-5.6,1.5-11.3,2-17.5,1.5c1.5-1.7,2.6-3.2,3.9-4.6c6.1-6.6,12.9-12.5,19.1-19.1
			C690.7,162,695.6,157.5,700.3,152.8 M752.1,13.2c4-2.6,3.1-2.2,6.7-4.3c0.7-0.4,1.4-0.9,2.2-1.2c2.9-1.2,4.4-0.4,5,2.6
			c0.7,3.6,0.5,7.3-0.4,10.8c-2.9,11.1-6.1,21-11.5,30.7c-3.4,6-7,11.7-10.5,17.6c-6,10.1-12,20.2-17.9,31.1c0-8.5,1.6-15.8,5-22.9
			c5.8-11.7,12.3-23,18.4-34.6c2.7-5.2,4.6-10.9,6.6-16.4c0.8-2.4,0.8-5.1-1.2-6.9c-1.8-1.6-5-1.3-7.4,0.1
			C748.2,17.3,749,15.1,752.1,13.2 M727.2,30.5c4.7-3,9.4-6.1,14.5-8.8c-1.4,3.1-2.7,6.2-4.1,9.2c-3.2,7.3-5.9,14.7-8.2,22.4
			c-2.8,9.1-4.3,18.4-6.5,27.5c-1.7,6.9-1.8,14.2-3,21.3c-1.3,7.9-1.4,16-5.1,23.4c-1.5,2.8-3.2,5.5-5.1,7.9
			c-7.9,10.1-16,20-25.2,28.9c-2.6,2.5-5.4,4.8-8.3,7.4c3.9-14.4,6.3-28.7,6.3-43.1c0-7.9,0.2-15.9,1.1-23.8c1-9,2.8-17.9,8.9-25.2
			c4.4-5.4,9.3-5.5,14.7-3.6c4,1.5,6,7.2,4.3,11.2c-0.8,1.8-4.4,4.2-6.4,4.1c-0.7-0.1-0.8-0.8-1.1-1.3c-2-3.1-8.3-1.8-9.5,1.8
			c-0.7,2.2,0.6,4.6,3.2,5.6c3.6,1.3,6.7,0.9,11.1-1.6c-1.1,3.2-2.8,5.8-2.7,9.1c0.1,2.5,0.8,4.7,2,6.8c1,1.7,3.2,2.5,4.9,1.7
			c1-0.4,1.7-0.9,1.7-2.5c-0.2-1.5-1.1-2.4-2.6-2.8c-1-0.2-2.2,0.6-2.9-0.7c-0.9-1.7-1.3-4-0.8-5.9c0.9-3.3,2-6.1,4.1-9
			c3.7-5.1,3.6-10.8-0.4-15.7c-2.7-3.3-6.6-4.2-10.8-4.1c-0.6,0,0.3-1.1,1-1.5c6.1-3.9,10.5-8.5,15.7-13.5c5.1-4.9,8.7-10.7,9.3-18
			c0.2-1.8-0.3-3.5-0.7-5.2C726.4,31.6,726.4,31,727.2,30.5 M672.2,102.7c1.7-4.7,2.8-9.7,4.7-14.3c2.7-6.5,4-11.6,9-19
			c2-3,18.5-20.5,23.2-24.4c4-3.4,13.2-11.1,13.9-10.8s0.8,1.2,1,2c1.1,4.7-1.2,8.6-3.5,12.3c-3.6,6.1-21.8,19-27.4,24
			c-5.8,5.1-9,12.1-11.2,19.3c-2,6.5-2.5,13.3-3.2,20c-0.5,4.8-0.1,9.7-0.2,14.6c-0.4,14.4-1.8,28.6-7,42.2c-1.5,3.9-3.4,7.7-6,11.5
			c-1-3.7-1.8-7.2-5.6-8.5c-2.9-1.1-7.4,0.5-8.9,3.2c-0.9,1.6-1.1,3.3,0.1,4.8c1.2,1.4,2.7,2.1,4.9,1.4c-1.3-0.8-3.1-0.3-3.4-2.2
			c-0.2-1.3,0.4-2.2,1.4-3c1.4-1.2,3.7-0.7,4.7,1c1.9,3.4-0.5,11.5-4.1,13c-1.6,0.7-3.6,0.6-5.5,0.7c-3.6,0.2-7.2,0.4-11,0.7
			c1.9-3.5,4-6.7,5.6-10.2c2.4-5.2,4.9-10.3,7.1-15.6c3.5-8.5,5.5-17.5,8.9-26C662.2,133.2,671,106,672.2,102.7 M449.2,290.3
			c0-90.2,73.1-163.2,163.2-163.2c15.4,0,30.2,2.2,44.3,6.2c-0.3,0.8-0.5,1.6-0.8,2.4c-2.1,6.3-4.5,12.5-6.8,18.7
			c-4.1,10.8-8.1,21.5-14,31.4c-1.6,2.7-3.1,5.7-6.3,6.8c-3.1,1.1-6.3,1.9-9.5,2.5c-6.3,1.2-12.4,2.9-18,6.1
			c-3.3,1.8-7,2.4-10.6,2.8c-7.9,0.8-15.5,2.4-22.7,5.6c-1.9,0.8-3.6,1.5-5.6,2.7c-5.6,3.6-8.7,9.6-10.3,16
			c-1.2,4.8-3.4,8.9-7.5,11.6c-0.5,0.2-10.8,10.3-15.8,14.5c-4.8,4-8.8,8.9-14,12.4c-1.7,1.1-3.1,2.5-4.6,3.8
			c-4.9,4.5-9.9,8.8-14.6,13.5c-3.4,3.4-7.9,5.3-10.8,9.2c-4,5.4-5.7,11.2-3.4,17.8c1.2,3.6,3.3,6.8,3.6,10.8
			c0.8,9.7,3.8,18.8,8.2,27.6c1.9,3.7,4.4,7,7.3,9.7c3.4,3.1,8,4.4,12.7,2.9c5-1.6,9.6-1.1,14.5,0.6c4.3,1.4,8.8,2.1,13.4,0.7
			c2.8-0.8,5.6-1.7,8.1-3.2c0.6-0.3,1.2-0.9,1.7,0.1c1.5,2.5,3.7,4.5,5,7.2c3.1,6.2,4.5,12.7,4.7,19.7c0.2,7.8-1.2,15.1-3.7,22.4
			c-1.6,4.7-8.8,19.4-14.1,28.6C487.7,412.1,449.2,355.7,449.2,290.3 M531.3,268.7c-2.7,2.8-5.8,5.7-8.9,9.1c0.9-4,3.2-6.9,4.5-11
			c-4.1,2.8-11.7,7.9-11.6,7.1c2.2-2.2,12.1-11.9,15.3-14.2c2.6-1.8,5-3,8.5-2.1c4.9,1.2,0.7,8.7-3.6,13.2c-2.8,3-4.2,6.3-7.8,9.4
			C529.1,276.1,531.6,268.8,531.3,268.7 M504.6,352.8c0.2-0.8,2-4.3,3.2-5.4c1.4,1.6,7.6,6.2,10.2,7.7c-3,1.5-9.4,2.5-12,0.8
			C504.9,355.2,504.3,354.2,504.6,352.8 M775.7,290.3c0,52.9-25.2,99.9-64.2,129.7c-44.5-20.6-47.9-59.2-43.4-77.2
			c0.9-3.7,2-6.8,5-9.5c6.3-5.7,10.5-12.7,12.7-20.9c1.8-6.7,3.5-13.5,4.1-20.5c0.4-5.6,0.8-11.3,0-16.9c-1.3-8.5-3.3-16.9-4-25.5
			c-0.4-5.1,1.1-9.7,4.3-13.7c4.6-5.8,10.9-7.4,16.4-9.4c4.1-1.5,8.5-1.4,12.7-1.8c7.3-0.6,26.6-1.9,32.5-2.5
			c2.9-0.4,5.6-0.9,8.2-1.6C770,241.8,775.7,265.4,775.7,290.3 M889.9,111.1c-4.6,5.9-8.5,10.4-13.1,15.2
			c-5.8,6.2-10.9,11.6-16.5,18.3c-4.7,5.5-8.9,10-13.3,15c-8.9,10.1-18.3,19.4-28.8,27c-2.7,1.9-17.3,12.4-22.2,15.2
			c-5.1,2.9-9.9,5.5-15.4,7.8c-4.7,1.7-9.5,3.1-14.2,4.4c-13.4,3.7-39.4,5.5-47.2,4.8c-1.3-0.1-2.6-0.2-4.1-0.2
			c1.2-1.3,5.9-7.1,8.3-6.8c10.4,1.2,20.6-0.7,30.8-2.8c8.2-1.7,31.5-11.1,30.6-10.8c-5.2,1.2-16.4,3.9-21.6,5.1
			c-7.8,1.8-15.6,2.8-23.5,3.1c-4.3,0.1-8.5-0.2-12.9-0.5c1-1.8,5.5-6.3,6.9-7.7c0.4-0.5,0.7-0.2,1.1,0.1c3,2,7.5,1.5,10.1-1.4
			c1-1.1,1.6-1.2,2.8-0.3c3.3,2.5,6.7,2,9.6-1.2c0.7-0.7,1-0.7,1.8-0.2c3,1.8,6.1,2.2,9.2-0.1c0.8-0.6,1.3-1.4,1.7-2.3
			c0.4-1,0.9-1.1,1.7-0.7c3.9,2.1,7.2,1.3,10.3-2.4c0.4-0.5,0.5-1,1.4-0.7c3.8,1.1,7.3,0.4,9.7-4c0.3-0.6,0.7-0.6,1.2-0.3
			c3.9,2.3,8.1-0.7,9.9-4c0.3-0.7,0.5-0.8,1.2-0.7c3.1,0.6,8.3-1.3,9.9-7c0.3-1,1-1,1.4-1c4.1-0.5,7.1-1.7,8.2-7.9
			c0.2-0.8,0.6-0.9,1-1.1c5.2-1.5,7.5-8.5,5.8-14.4c-0.2-0.8-0.2-1.3,0.2-2.2c2.5-4.6,2.1-8-1.1-11.9c-0.3-0.4-0.9-0.7-0.6-1.4
			c1.2-3,0-5.1-1.6-7.3c3.8-2.4,7.8-3.9,11.7-5.6c6-2.6,11.9-5.5,17.9-8c5.1-2.1,10.3-3.7,15.5-5.3c4.4-1.3,6.7-1.8,11.9-2.2
			c2.5-0.1,4.9-0.8,5.8,1.4C892.5,108.2,890.9,109.8,889.9,111.1 M747.7,188.6c3.2-3.6,6.4-7.1,9.9-11c0.6,3.9,0.4,7.2,0.7,11
			c2.2-3.9,4-7.6,5.8-11.4c1.8,3.1,3.1,6.3,4.6,9.6c1.2-3.9,0.6-7.8,1.1-12c2.7,3.3,4.6,7,7.7,9.8c0.1-4.5-1.1-8.3-1.1-12.5
			c4.4,2.6,8.2,5.9,12.9,7.6c-1.9-3.9-3.8-7.8-5.9-12.1c5.7,2.5,11,5.7,16.7,7.4c-3.1-4.5-6.6-8.3-10.7-12.2
			c7.2,1.2,13.7,4.5,21,4.9c-5-3.8-9.6-7.3-14.5-11.1c8.6-0.1,16.7,0.3,24.9,0.7c-6.8-3-13.8-5-20.9-8.5c8.4-1.8,16.5-2.2,24.4-4.6
			c-6.2-0.9-12.4-1.8-19-2.8c2.9-2.7,5.7-4.5,8.4-6.5c0.6-0.4,1.2-0.8,1.7-1.2c4.1-2.9,4.2-3.1,7.4-0.7c2.7,2,3.7,5.1,4.1,9
			c0.8,9-2.6,15.7-7.8,21.4c-5,5.4-10.5,9.8-16.5,13.5c-6.9,4.2-14.1,7.5-21.6,9.7c-7.3,2.2-14.6,4.1-22.2,5c-4.1,0.5-8.3,1-12.5,1
			c-2.2,0.1-4.4-0.2-7-0.4c3.3-4.2,6.6-7.5,10.3-10.6c-0.8,2.3-1.5,4.6-2.3,6.8C747.5,188.4,747.6,188.5,747.7,188.6 M899.9,98
			c-0.7,3.1-3,6.3-4.1,8.1c-0.2-0.4,2.7-7.8-6.1-6.3c-9.6,1.1-19,2.8-28.2,6.7c-5.5,2-9.1,3.2-13.5,5c-4.9,2.2-7.8,3.6-11.6,5.3
			c-8.4,3.6-16.5,7.4-24.8,11.6c-4.6,2.3-9.5,3.9-13.8,6.6c-7.1,4.5-14.5,8.3-21.3,13.8c-7.6,6.1-14.6,13.2-21.7,20.1
			c-9.2,9-18.5,17.8-26.9,27.8c-5.3,6.3-11.2,11.8-17,17.3c-5.4,5.1-11.7,8.1-19.4,12.1c-2.3,1.2-4,3.1-5.7,5
			c-2.5-4.2-1.5-11.8,3.5-18.1c5.4-6.9,13.7-8,19.6-5.4c-3-3.5-6.5-5.1-11.3-4.2c3.4-3.5,6.6-5.8,10.2-7.7
			c10.3-5.5,20.4-11.6,29.3-20c4.6-4.3,9.5-8.1,14-12.6c4.1-4.1,8.2-8.1,12.6-11.6c2.1-1.6,4.3-2.7,6.7-3.6c1.2-0.5,2.9-0.8,2.6-3
			c-0.2-1.5-2-2.1-3.7-1.6c-3.6,1.1-6.1,4.2-8.7,7.3c-4.1,4.9-8.1,10-12.8,14.1c-0.3,0.2-0.5,0.7-1,0.3c2.2-3,4.5-5.9,5.3-10
			c0.4-2,0.2-3.9-1.2-4.9c-1.3-0.9-2.8-0.7-4.1,0.7c-2.5,2.5-3.8,5.9-4.8,9.4c-2.2,7.5-6.7,12.4-11.6,16.9
			c-7.2,6.6-15.5,10.9-23.7,15.4c-6.3,3.5-13.9,6.8-19.2,13.6c-5.3,6.9-7.9,15-8.4,23.8c-0.6,9.6,0.6,19.2,1.7,28.7
			c0.2,1.2,0.5,2.4,0.8,3.6c2.7,10.9,3.5,21.9,1.6,33.1c-0.7,3.7-0.8,7.6-2.1,11.3c-3,8.9-7.1,17.3-14.3,23.5
			c-5,4.3-10.7,8.3-17.6,8.9c-6,0.5-11.9,0.1-17.3-3.4c-5.5-3.5-9.6-8.1-13.5-13.1c-2.1-2.7-2.7-6.2-4.3-9.1
			c-1.6-2.8-3.7-5.1-6.6-6.3c-2.5-1.1-5.3-0.7-7.8,0.4s-4.6,2.8-6.4,4.8c-1.7,1.9-3.7,3.4-6.2,4.2c-0.2,0.2-0.5,0.2-0.5,0.4
			c-0.1,0.3,6.4-0.7,8.3-2c2-1.3,3.9-2.6,6.4-3c3.4-0.5,5.1,0.3,6.9,3.2c1.6,2.6,2.6,5.3,3.6,8.2c1,3,1.7,6.2,4.3,9.3
			c-10.5-2.1-19.2,0.1-26.7,6.7c-5.2-9.7-8.6-11.8-17.9-10.9c1.7,0.7,3,1.3,4.3,1.7c4.1,1.2,7.7,7.8,6.4,12.6
			c-2.2,7.8-6.4,11.2-14,12.2c-0.5,0.1-1.1-0.2-1.6-0.1c-0.9,0.1-2-1-2.5,0c-0.3,0.6,0.3,1.8,0.8,2.5c4.9,6.9,6.8,15.1,8.8,23.1
			c1.3,5.2,0.7,10.6,0.1,15.9c-1.3,9.7-6.3,28.1-12.9,38.5c3.3-1.8,9.7-6.8,14.4-11c0.1,2.6-0.2,4.6-3.7,10.6
			c2.7-1.6,5.4-2.4,14.1-10.2c-0.9,3.5-1,7-8.7,15.9c4.7-1.1,10.3-6.4,17.6-11.8c-0.8,5.9-1.3,8.2-0.3,18c3.4-7.6,5.1-8.6,10.8-18
			c0.1,6,0.4,9.1,4.5,18.7c0.7-7.2,1.9-4,5.8-17.9c1.6,8.5,5.8,14.7,9.8,19.4c-0.4-7.7-0.8-12.1,2.9-20.1c1.8,5.1,4,7.9,11.8,15.6
			c-1.6-9.3-1.1-13.6,1.3-18.5c3,4.1,5.9,7.9,15.6,13.7c-2.3-7.4-2.9-12.8-3.4-21.5c2.8,4,3.8,8.5,20,14.5
			c-3.7-3.3-7.7-11.2-7.2-17.3c8.6,6.8,19.7,6.9,19.7,6.9c-14.1-10.7-22.4-24.2-27.4-33.5c-2.7-5.2-3.7-10.9-4.5-16.7
			c-0.8-5.9-1.4-11.7-1.2-17.7c0.1-2.2,0.5-4.4,0.7-6.7c0.1-0.8,0.6-0.9,1.2-1.2c1.7-0.6,3.5-1.2,5.5-2c-3.4,21.5,3.6,40.6,9.5,48.6
			c17.4,23.9,26,28.9,33.9,33.5c-26,17.5-57.3,27.7-91,27.7c-21.9,0-42.7-4.3-61.7-12.1c6-13.4,12.9-30.5,15.5-42.2
			c2.9-13.4,1.4-25.5-5.6-37.1c-1.2-2-2.4-4-4.1-5.5c-0.9-0.8-0.8-1.4,0-2.3c2.5-2.8,4.5-6,5.6-9.6c0.2-0.6,0.4-1.1,1.1-0.4
			c1.1,1.1,2.3,1.1,3.4,0c1.2-1.2,1-2.6,0.2-4c-0.9-1.5-2.3-2.2-3.8-2.3c-3.6-0.2-6.7,0.7-8.8,4.2c1.7,0,3-1.4,4.6-0.6
			c-2.4,6.1-6,10.9-12.2,13.8c-5.4,2.5-10.8,3.5-16.5,2.2c-4-0.9-16.2-9.7-22.5-15.3c-0.5-0.5-0.9-1.6-1.8-1.2
			c-0.7,0.3-0.9,1.4-1,2.2c-0.1,1.2-2.6,5.6-3.7,5.9c-1.5,0.3-1.9-1.6-2.4-2.6c-2.2-4.4-3.9-9-5.3-13.7c-1-3.4-2.2-6.7-2.5-10.5
			c2.3,1.6,4.4,3,6.3,4.4c0.7,0.5,0.9,1.4,0.9,2.3c0.1,1.8,1.6,6.7,1.7,6.9c0.2-0.5,0.4-0.7,0.3-1.2c-0.1-1.6,0.2-4.6,0.1-6.2
			c-0.1-1.2,0.2-2.4,1.9-2.6c1.4-0.2,2.5-1.1,3.5-2.2c2.8-3.3,6.1-5.6,10.5-6c2.2-0.2,3.4-1.4,4.3-3.3c1-2.2,2.1-4.3,3.2-6.5
			c0.1-0.1,0.1-0.1,0.1-0.1l-0.8-1c0,0-3.9,2.3-6.5,2.7c1.9-2.3,5.4-6.9,5.4-6.9l-0.8-0.6c0,0-7.1,4-11,6.2c1.3-2.8,4.1-6.8,4.1-6.8
			l-1.3-0.5c0,0-6.3,4.3-10.4,5.6c1.3-1.7,4.1-6,4.1-6l-1.2-0.6c0,0-6.7,3.5-9.8,5.1c-0.1-0.2-0.2-0.4-0.3-0.6
			c2-2.5,6.3-7.8,6.3-7.8l-0.8-0.8c0,0-9.5,5.3-11.9,5.5c-1-2.9,1.6-5.9,5-8.3c0.4-0.2,0.8-0.5,1.3-0.7c2.6-1.2,4.6-3.3,6.7-5.2
			c1-0.9,2-2,2.9-3c0.8-0.9,1.7-1.2,2.7-0.8c2.2,0.8,4.2,0.4,6.3-0.2c1-0.3,1.4-0.2,1.5,1.1c0.2,3.1,0.5,6.2,3,8.5
			c4.1,3.6,9.5,2.9,13.5-1.9c4.3-5.2,7.5-11,10.2-17.2c1.7-3.9,3.2-7.9,4.3-12.1c0.5-1.8,0.5-3.7,0.4-5.5c-0.2-2.9-1.7-4.1-5.6-4.9
			c2.2-3.8,5.9-6,9-9c4.1-3.9,8.5-7.5,12.7-11.3c3-2.7,6.3-5.2,9.4-7.9c1.9-1.6,3.8-3.2,5.6-5.1c-7,2.8-13,7.2-19.4,11.5
			c0.3-2.2,1.3-3.6,2-5.2c3.7-8.2,10.7-11.8,18.9-13.9c3.5-0.9,7.1-0.9,10.6-1.3c3.7-0.4,7.2-1.8,10.8-2.8
			c5.6-1.5,10.9-3.5,16.2-5.9c3.2-1.4,6.7-1.5,10-2.1c6.9-1.2,23.6-2.8,36.8-2.1c1.5,0.1,3.2,0.6,5.1,0.7c4.1,0.2,7.3-0.7,11.2-1.6
			c10.3-2.3,20.3-5.4,27.1-11.2c5.6-4.8,11.5-9.2,16.4-15.3c3.7-4.6,8-8.3,12-12.6c-2.8,8-6.4,15.3-11.8,21.2
			c0.1,0.2,3.6-2.2,4.9-3.8c5.4-6.5,9.9-13.8,12.5-22.7c0.7-2.3,2.5-3.4,4-4.8c3-2.8,6.1-5.3,9.1-8.1c1-0.9,1.7-1.1,2.9-0.3
			c6.7,4.2,11.9,3.1,17.7-3.4c0.5-0.6,0.8-2,2-1c6.5,5.2,13.8,0.3,17.3-5.6c0.6-1,1-1.2,2-0.9c8.3,2.1,18.2-3.3,19.2-15.5
			c0.1-1.1,0.2-1.8,1.3-2c7-1.7,13.2-3.1,19.8-4.8c6.4-1.6,12.4-2.7,19.1-4.3c7.3-1.7,14.6-3.4,22-4.9c6.2-1.2,17-4,21.5-1.5
			C899.8,95.1,900.3,96.1,899.9,98 M610,386.4c-0.7-1-1.5-1.5-2.7-1.4c-2.7,0.3-14.1,1.6-17.1,1.6c-4.4-0.1-6.7-3.4-5.3-7.1
			c0.5-1.2,1.2-2,2.7-2.2c6-1.1,12.1-2.1,18.2-2.5c2-0.1,2.8-1,2.6-2.9c-0.2-2-0.2-4-0.7-5.9c-0.7-2.8-2-3.6-4.9-3.1
			c-4.7,0.7-9.4,1.7-14.2,1.1c-1.5-0.2-2.8-0.4-3.6-2c-1.9-3.6,0-7,4.4-7.6c3.1-0.4,36.6-4.5,39.6-4.8c4.3,0,6.6,0.2,8.6,2.7
			c2.5,3.2,1.2,5.6-2.5,7c-3.3,1.2-6.8,1.2-10,1.7c-2.1,0.3-4.5,0.4-5.1,3c-0.7,3.1-0.2,4.1,1.2,7.5c1,0.9,2.9,1.6,4.1,1.4
			c4.1-0.7,8-2,12.2-1.7c4.2,0.4,7,5.1,5.1,8.5c-1.3,2.3-13.6,2.6-17.5,3.5c-1.2,0.3-2.2,1-2.3,2c-0.3,2.6-0.6,5.2,0.4,7.7
			c1.1,2.7,3.3,2.2,5.3,1.8c4-0.6,8-1.2,12.1-1.4c2.3-0.1,4.2,0.7,5.6,2.6c2,2.8,0.5,6.3-3.1,6.9c-4.9,0.9-9.8,1.5-14.8,2.3
			c-3.7,0.6-7.4,2-8.4,5.6c0.1,1.3-3,1.8-3.5,0.6c-2-5-5.6-4.9-10.2-4.3c-4.7,0.6-9.4,1.7-14.1,1.8c-2.1,0-4.1-0.1-5.2-2.5
			c-1.3-2.9,0.6-6.4,4.1-7.4c2.7-0.8,13.7-1.8,16.4-2.2c2.7-0.5,3.4-1.5,3.5-4.1C611,390.3,611.5,388.3,610,386.4"/>
		<path class="st1" d="M667.2,168.6c0.9-3.5,1.7-6.8,1.6-10.3c-0.2-5.6-0.4-11.3,1.9-16.7c0.4-1.3,1.1-5.6-0.6-6.1
			c-1.8-0.6-2.5,0.8-2.9,2.2c-0.5,1.7-0.6,3.5-0.6,5.3c-0.1,3,0.6,6-0.2,9.1c-1.1-0.7-2.2-1.6-3.4-0.7c-1.1,0.7-1.2,2-1,3.2
			C662.9,159.5,665.9,163.7,667.2,168.6"/>
		<path class="st1" d="M699.6,106c-1.8-0.6-3.4,0.2-4.6,2.5c-0.6,1.1-0.8,2.3-1.1,3.5c-1.1,5.5-1.3,11.2-2.7,16.7
			c-2.1,8.2-4,16.4-6,24.7c0.2,0.1,2-3,2.6-4.4c3.4-8.2,6.9-15.7,10.2-23.9c1.8-4.6,3.6-9.1,4.5-14C703,108.8,701.7,106.7,699.6,106
			"/>
		<path class="st1" d="M620.6,239c-8.5,0-15.3,6.8-15.3,15.1c0,8.4,6.9,15.1,15.3,15.1c8.5,0,15.3-6.8,15.3-15.1
			C635.9,245.7,629,239,620.6,239 M622.7,254c-1.7,0-3.3-1.7-3.3-3.4c0-2.1,1.5-3.5,3.7-3.5c1.8,0,3.3,1.5,3.3,3.3
			C626.4,252.3,624.6,254.1,622.7,254"/>
		<path class="st1" d="M636.3,226.4c4.4,0.6,8.7,2,12.4,4.5c3,2.1,3.1,3.3,0.7,5.8c-0.1,0.1-0.1,0.3-0.1,0.4c5.1,1.8,9.9,3.6,12.6,7
			c2,2.6,1.4,4.6-1.7,5.2c-2.1,0.4-4.3,0.6-7.1,1c6.5,2.6,11,6.8,14.8,11.7c0.8,1,1.8,1.7,3,2s2.3,0.4,3.2-0.7
			c0.8-1.1,0.9-2.2,0.2-3.5c-0.8-1.5-2.1-2.7-3.5-3.6c-1.8-1.2-3.7-2.4-5.6-3.6c4.1-4,4.1-6.4,0.1-10.5c-1.6-1.6-3.5-2.5-5.4-3.4
			s-3.9-1.5-6.4-2.1c2.7-1.3,2.3-2.9,1.5-4.6c-1.2-2.5-3.5-3.6-5.8-4.8c-4.9-2.4-10.1-3.4-15.5-3.9c-4.9-0.4-9.5,0.1-14.2,1.3
			C625.1,224.5,630.7,225.6,636.3,226.4"/>
		<path class="st1" d="M669.1,278.8c1.2-1.1,0.4-3.7-1.4-5.5c-0.1-0.1-0.2-0.2-0.3-0.3c-5.2-4.1-11.3-5.9-18.5-5.8
			c1.2,0.7,1.9,1.1,2.6,1.5c4.5,2.6,8.5,6,12.5,9.3C665.4,279.2,667.2,280.3,669.1,278.8"/>
		<path class="st1" d="M643.5,274.8c4.3,3.2,7.1,7,9.9,10.8c2.3,3.1,4.4,6.3,7.1,9c1,1,2.3,1.6,3.7,0.8c1.4-0.8,2.1-2,2-3.6
			c-0.2-1.6-0.8-3-2-4c-4.6-3.7-8.9-7.8-14.2-10.6C648.2,276.4,646.5,274.9,643.5,274.8"/>
		<path class="st1" d="M562.4,269.5c1.8-0.1,2.7-1.7,2.6-4.9c0-0.5,0-1.1-0.2-1.6c-1.8-7-2.1-13.9-1-21.1c-0.7,1.3-1.4,2.7-2,4.1
			c-2.6,6-4.2,12.2-3.4,18.8C558.7,267,560.8,269.5,562.4,269.5"/>
		<path class="st1" d="M523.7,324.7c2.3-2,4.6-4.1,7.2-6.3c-0.6,0-10.6,4.7-15.2,7.5c-2,1.2-3.4,2.5-3.3,4.9c0.1,1.2,0.8,2,2,2
			c2.4,0.2,4.1-1.2,5.1-3.1C520.5,327.7,522.1,326.2,523.7,324.7"/>
		<path class="st1" d="M872.2,112.7c-3.7,0.3-7.2,1.7-10.6,3.2c-7.4,3.2-11.7,6.3-18.7,10.7c-1.4,0.9-4.7,3.5-6.4,5.4
			c3.2-1.5,6.1-2.9,9-4.1c6.5-2.7,13.1-4.4,19.9-5.5c2.7-0.4,5.6-0.5,8.2-2.2c1.8-1.2,2.7-3,2.2-5.3
			C875.4,112.6,873.8,112.6,872.2,112.7"/>
		<path class="st1" d="M859.2,130c-3.7,0.2-6.9,1.9-10.4,3.4c-4,1.8-6.5,3-9.9,5.3c0.7,0.1,10.7-2.5,15.6-3.1c2-0.2,4.3,0.7,6.2-0.5
			c1.7-1.1,2.4-3,1.2-4.4C861.2,129.8,860.2,130,859.2,130"/>
		<path class="st1" d="M607.3,291.1c-1.8,1.2-3.4,1.3-5.4,0.6c-4-1.5-7.7-3.3-11.1-5.9c-5.4-4.1-10-8.8-13-15
			c-4.2-8.5-6.5-17.4-6.8-26.8c-0.7,1.2-0.8,2.4-0.9,3.6c-0.8,10.2,2.1,19.6,6.5,28.6c3.2,6.5,4.1,13,1.3,19.7
			c-2.2,5.5-7,9.2-13.2,8.5c-6.9-0.7-10.1-6.9-6.5-12.5c1.5-2.2,3.2-2.3,5-0.3c1.3,1.5,3,2.1,5,1.5c1.8-0.5,3-1.7,3.3-3.5
			c0.5-2.7-1.3-6-3.7-7.5c-3.1-1.8-8.1-1.7-11.4,2c-5.4,6.1-5.1,13.9-0.8,18.6c3.3,3.7,7.7,4.7,12.6,4.1c8.3-1,13.9-5,16.5-13.1
			c0.7-2.2,0.6-4.4,1.3-6.7c5.7,5.3,12.2,8.9,19.2,11.5c3,1.1,6.2,2,9.4,0.7c2.6-1.1,3.6-3.8,2.2-6.2
			C614.8,289.9,610.5,288.9,607.3,291.1"/>
		<path class="st1" d="M661.7,214.6c2.2,2.4,1.7,4-2.3,4.8c-2.1,0.4-4.3,0.6-6.9,1c7.8,2.9,14.4,7,19.6,11.8c-1.1-3.9-3.8-6.2-6.3-8
			c-0.7-0.5-1.6-1,0.2-1.7c5.6-2.2,6.3-4.9,2.5-8.5c-3.8-3.7-9.5-5.6-15-7.6c-7.7-2.7-14.6-2.9-22.3-2c0,0.2,0,0.5-0.1,0.7
			c4.6,0,8.9,0.5,12.2,1.5C650.3,208.7,657.2,209.8,661.7,214.6"/>
		<path class="st1" d="M548.8,318.3c-4.2,1.2-8.5,2.2-12.6,3.6c-2.3,0.8-4.6,2-6.7,3.2c-1.3,0.7-2.2,2.1-1.5,3.6
			c0.7,1.6,2.3,1.6,3.7,1.2c1.8-0.5,3.6-1.3,4.9-2.8s2.8-2.5,4.6-3.4c3.2-1.6,6.4-3.3,9.5-5C550.6,318.5,549.4,318.1,548.8,318.3"/>
	</g>
	<path class="st0" d="M908.2,673.9c-5.6,0-9.9-4.5-9.9-9.9s4.4-10,10-10s9.9,4.5,9.9,10C918.2,669.3,913.8,673.9,908.2,673.9
		 M908.2,655.2c-4.9,0-8.6,3.9-8.6,8.7s3.7,8.6,8.6,8.6c4.9,0,8.6-3.9,8.6-8.7C916.8,659.1,913.1,655.2,908.2,655.2 M910.4,664.8
		l2.7,3.8h-2.3l-2.5-3.5h-2.1v3.5h-1.9v-10.1h4.5c2.3,0,3.9,1.2,3.9,3.2C912.8,663.4,911.8,664.4,910.4,664.8 M908.8,660.3h-2.5v3.2
		h2.5c1.2,0,2-0.6,2-1.6C910.8,660.8,910,660.3,908.8,660.3 M305.8,650.1v-44.6c0-1.5,1.6-2.4,2.9-1.8l32.6,16.1
		c0.7,0.3,1.1,1,1.1,1.8v9.8c0,0.7,0.4,1.5,1.1,1.8l29.9,14.7c1.3,0.7,2.9-0.3,2.9-1.8v-33.5c0-0.7-0.4-1.4-1.1-1.8L307,576.4
		c-0.7-0.3-1.1-1-1.1-1.8v-31.4c0-0.7,0.4-1.4,1.1-1.8l69.4-34.9c0.6-0.3,1.2-0.3,1.8,0l33.6,16.7c0.7,0.3,1.1,1,1.1,1.8v33.8
		c0,1.5-1.6,2.4-2.9,1.7l-64.7-33.2c-1.3-0.7-2.9,0.3-2.9,1.7v26.5c0,0.7,0.4,1.4,1.1,1.7l68.3,35.1c0.7,0.3,1.1,1,1.1,1.7v38.3
		c0,0.7-0.4,1.4-1.1,1.8L342.4,669c-0.6,0.3-1.2,0.3-1.8,0L307,651.6C306.3,651.5,305.8,650.8,305.8,650.1 M533.8,666.9V526.7
		c0-0.7-0.4-1.4-1.1-1.7l-32.6-16.8c-1.3-0.7-2.9,0.3-2.9,1.7V646c0,1.5-1.6,2.4-2.9,1.8l-28.9-14.6c-0.7-0.3-1.1-1-1.1-1.8V527.8
		c0-1.5-1.5-2.4-2.9-1.8l-33.6,16.5c-0.7,0.3-1.1,1-1.1,1.8v105.8c0,0.7,0.4,1.4,1.1,1.8l34.7,17.4c0.6,0.3,1.2,0.3,1.8,0l32.9-17
		c0.6-0.3,1.2-0.3,1.8,0l31.8,16.4C532.3,669.3,533.8,668.4,533.8,666.9 M581,669.2l69.4-34.9c0.7-0.3,1.1-1,1.1-1.8v-33.1
		c0-1.5-1.6-2.4-2.9-1.8L616,614.1c-0.7,0.3-1.1,1-1.1,1.8v30.8c0,1.5-1.6,2.4-2.9,1.7l-29.9-15.3c-0.7-0.3-1.1-1-1.1-1.7v-22.9
		c0-0.7,0.4-1.4,1.1-1.8l68.2-34.4c0.7-0.3,1.1-1,1.1-1.8v-43.8c0-0.7-0.4-1.4-1.1-1.7l-33.6-17.4c-0.6-0.3-1.2-0.3-1.8,0
		l-65.6,33.1c-0.7,0.3-1.1,1-1.1,1.8v109.8c0,0.7,0.4,1.4,1.1,1.8l29.8,15.2C579.8,669.5,580.5,669.5,581,669.2 M581,572.1v-41.3
		c0-1.5,1.6-2.4,2.9-1.7l29.9,15.3c0.7,0.3,1.1,1,1.1,1.7v38c0,1.4-1.4,2.3-2.7,1.8l-29.9-12C581.5,573.6,581,572.9,581,572.1
		 M701.9,666.9V561.5c0-0.7,0.4-1.5,1.1-1.8l27.1-13.3c0.7-0.3,1.1-1,1.1-1.8v-33.1c0-1.5-1.6-2.4-2.9-1.8l-61.9,30.9
		c-0.7,0.3-1.1,1-1.1,1.8v107.7c0,0.7,0.4,1.4,1.1,1.7l32.6,16.8C700.4,669.3,701.9,668.4,701.9,666.9 M776.7,669.2l29.2-14.6
		c1.5-0.7,1.5-2.8,0-3.5l-28.1-14.7c-0.7-0.3-1.1-1-1.1-1.7v-92.5c0-0.7,0.4-1.4,1.1-1.7l28.2-15.1c1.4-0.7,1.4-2.8-0.1-3.5
		l-28.1-14c-0.7-0.3-1.1-1-1.1-1.8v-38.5c0-1.5-1.6-2.5-2.9-1.7L743,482.7c-0.6,0.3-1,1-1,1.7v165.9c0,0.7,0.4,1.4,1,1.7l31.9,17.3
		C775.4,669.5,776.1,669.5,776.7,669.2 M847.1,669.2l69.4-34.9c0.7-0.3,1.1-1,1.1-1.8v-33.1c0-1.5-1.6-2.4-2.9-1.8L882,614.1
		c-0.7,0.3-1.1,1-1.1,1.8v30.8c0,1.5-1.6,2.4-2.9,1.7l-29.9-15.3c-0.7-0.3-1.1-1-1.1-1.7v-23c0-0.7,0.4-1.4,1.1-1.7l34.2-17.5
		l34.1-16.9c0.7-0.3,1.1-1,1.1-1.8v-43.8c0-0.7-0.4-1.4-1.1-1.7l-33.6-17.4c-0.6-0.3-1.2-0.3-1.8,0l-65.5,33.1
		c-0.7,0.3-1.1,1-1.1,1.8v109.8c0,0.7,0.4,1.4,1.1,1.8l29.8,15.2C845.9,669.5,846.5,669.5,847.1,669.2 M847.1,572.1v-41.3
		c0-1.5,1.6-2.4,2.9-1.7l29.9,15.3c0.7,0.3,1.1,1,1.1,1.7v38c0,1.4-1.4,2.3-2.7,1.8l-29.9-12C847.6,573.6,847.1,572.9,847.1,572.1"
		/>
</g>
</svg>
